<svg xmlns="http://www.w3.org/2000/svg" xmlns:xlink="http://www.w3.org/1999/xlink" version="1.1" x="0px" y="0px" viewBox="0 0 90 112.5" enable-background="new 0 0 90 90" xml:space="preserve"><g><g><path d="M77.8,30H38.2c0.2,1,0.4,1.6,0.4,2.4c0,0.9-0.2,1.6-0.5,2.6h39.7c1.1,0,2-1.1,2-2.5C79.8,31.1,78.9,30,77.8,30z"/><path d="M22.9,32.4c0-0.8,0.1-1.4,0.4-2.4h-11c-1.1,0-2,1.1-2,2.5c0,1.4,0.9,2.5,2,2.5h11.1C23,34,22.9,33.3,22.9,32.4z"/></g><path d="M30.7,28.9c1.8,0,3.2,1.4,3.2,3.2c0,1.8-1.4,3.2-3.2,3.2s-3.2-1.4-3.2-3.2C27.5,30.3,28.9,28.9,30.7,28.9 M30.7,25.9   c-3.4,0-6.2,2.8-6.2,6.2c0,3.4,2.8,6.2,6.2,6.2s6.2-2.8,6.2-6.2C36.9,28.6,34.1,25.9,30.7,25.9L30.7,25.9z"/><g><path d="M50.7,57.4c0-0.8,0.1-1.4,0.4-2.4H12.2c-1.1,0-2,1.1-2,2.5s0.9,2.5,2,2.5h39C50.9,60,50.7,58.3,50.7,57.4z"/><path d="M77.8,55H66.1c0.2,1,0.4,1.6,0.4,2.4c0,0.9-0.2,2.6-0.5,2.6h11.8c1.1,0,2-1.1,2-2.5S78.9,55,77.8,55z"/></g><path d="M58.6,54.7c1.8,0,3.2,1.4,3.2,3.2c0,1.8-1.4,3.2-3.2,3.2c-1.8,0-3.2-1.4-3.2-3.2C55.4,56.2,56.8,54.7,58.6,54.7 M58.6,51.7   c-3.4,0-6.2,2.8-6.2,6.2s2.8,6.2,6.2,6.2c3.4,0,6.2-2.8,6.2-6.2S62,51.7,58.6,51.7L58.6,51.7z"/></g><text x="0" y="105" fill="#000000" font-size="5px" font-weight="bold" font-family="'Helvetica Neue', Helvetica, Arial-Unicode, Arial, Sans-serif">Created by Shrish Kotiyal </text><text x="0" y="110" fill="#000000" font-size="5px" font-weight="bold" font-family="'Helvetica Neue', Helvetica, Arial-Unicode, Arial, Sans-serif">from the Noun Project</text></svg>